<svg width="512" height="512" version="1.1" xmlns="http://www.w3.org/2000/svg" desc="Created with imagetracer.js version 1.2.6" ><path fill="rgb(0,0,0)" stroke="rgb(0,0,0)" stroke-width="1" opacity="0" d="M 0 0 L 512 0 L 512 512 L 0 512 L 0 0 Z M 235 16 L 234 17 L 213 19 L 195 23 L 156 37 Q 120 54 93 79 Q 58 111 37 156 L 23 195 L 19 213 L 17 234 L 16 235 L 16 278 L 17 279 L 17 287 L 23 318 L 31 343 Q 49 387 79 420 Q 111 455 158 476 L 195 489 L 213 493 L 234 495 L 235 496 L 278 496 L 279 495 L 287 495 L 314 490 L 340 482 Q 386 464 420 433 Q 454 401 475 357 L 481 343 L 489 318 L 493 300 L 495 279 L 496 278 L 496 235 L 495 234 L 495 226 L 490 199 L 482 173 Q 463 124 430 90 Q 394 51 340 30 L 310 21 L 287 17 L 279 17 L 278 16 L 235 16 Z " /><path fill="rgb(0,0,0)" stroke="rgb(0,0,0)" stroke-width="1" opacity="0" d="M 168.5 88 L 343.5 88 L 351.5 90 L 361 98.5 L 364 105.5 L 364 196 L 264.5 196 L 224.5 157 L 216.5 152 L 207.5 149 L 148 149 L 148 105.5 Q 150.4 96.4 157.5 92 L 168.5 88 Z " /><path fill="rgb(0,0,0)" stroke="rgb(0,0,0)" stroke-width="1" opacity="0" d="M 133.5 161 L 203.5 161 L 207.5 162 L 215.5 166 L 254.5 205 L 260.5 208 L 376.5 208 Q 390.3 210.3 397 219.5 L 401 226.5 L 403 234.5 L 403 381.5 Q 400.9 394.4 392.5 401 L 383.5 406 L 373.5 408 L 138.5 408 L 128.5 406 L 116 397.5 L 111 389.5 L 109 381.5 L 109 186.5 Q 111.6 173.6 120.5 167 L 133.5 161 Z M 207 223 L 192 226 L 176 235 L 165 248 L 159 263 Q 160 267 158 269 Q 156 291 166 303 L 159 304 L 146 311 L 132 327 L 128 337 L 126 348 Q 123 369 131 380 Q 137 387 148 390 L 272 390 L 285 384 Q 291 379 293 370 L 293 343 L 292 338 Q 289 326 282 319 Q 272 306 254 303 L 260 290 L 261 279 L 262 278 Q 262 255 251 243 Q 243 231 229 226 L 214 223 L 207 223 Z M 323 333 L 318 339 L 319 343 L 324 346 L 371 346 L 374 345 Q 378 344 376 337 L 372 333 L 323 333 Z M 323 356 L 320 357 L 318 362 L 319 366 L 322 368 L 374 368 Q 378 367 376 360 L 373 356 L 323 356 Z " /><path fill="rgb(0,0,0)" stroke="rgb(0,0,0)" stroke-width="1" opacity="0" d="M 209.5 235 L 217.5 236 L 226.5 239 L 240 249.5 L 248 264.5 Q 250.3 271.2 249 281.5 Q 245.6 295.6 236.5 304 Q 230.1 310.1 220.5 313 Q 213.4 315.4 202.5 314 Q 186.4 310.1 178 298.5 L 171 283.5 L 170 273.5 Q 172.5 272 171 266.5 L 176 254.5 L 186.5 243 L 195.5 238 L 209.5 235 Z " /><path fill="rgb(0,0,0)" stroke="rgb(0,0,0)" stroke-width="1" opacity="0" d="M 173.5 313 L 189.5 323 Q 199.2 327.3 213.5 327 L 230.5 323 L 246.5 313 L 264.5 320 L 273 327.5 Q 283.7 339.8 281 365.5 L 277 374 L 271.5 377 L 266.5 378 L 152.5 378 L 147.5 377 L 141 371.5 L 139 367.5 L 139 343.5 Q 142.4 328.4 153.5 321 L 173.5 313 Z " /><path fill="rgb(213,0,255)" stroke="rgb(213,0,255)" stroke-width="1" opacity="0.49411764705882355" d="M 234.5 16 L 241 16.5 L 234.5 17 L 234.5 16 Z " /><path fill="rgb(213,0,255)" stroke="rgb(213,0,255)" stroke-width="1" opacity="0.49411764705882355" d="M 271.5 16 L 278 16.5 L 271.5 17 L 271.5 16 Z " /><path fill="rgb(213,0,255)" stroke="rgb(213,0,255)" stroke-width="1" opacity="0.49411764705882355" d="M 282.5 17 L 287 17.5 L 282.5 18 L 282.5 17 Z " /><path fill="rgb(213,0,255)" stroke="rgb(213,0,255)" stroke-width="1" opacity="0.49411764705882355" d="M 289.5 18 L 294 18.5 L 289.5 19 L 289.5 18 Z " /><path fill="rgb(213,0,255)" stroke="rgb(213,0,255)" stroke-width="1" opacity="0.49411764705882355" d="M 296.5 19 L 300 19.5 L 296.5 20 L 296.5 19 Z " /><path fill="rgb(213,0,255)" stroke="rgb(213,0,255)" stroke-width="1" opacity="0.49411764705882355" d="M 301.5 20 L 305 20.5 L 301.5 21 L 301.5 20 Z " /><path fill="rgb(213,0,255)" stroke="rgb(213,0,255)" stroke-width="1" opacity="0.49411764705882355" d="M 306.5 21 L 310 21.5 L 306.5 22 L 306.5 21 Z " /><path fill="rgb(213,0,255)" stroke="rgb(213,0,255)" stroke-width="1" opacity="0.49411764705882355" d="M 311.5 22 L 314 22.5 L 311.5 23 L 311.5 22 Z " /><path fill="rgb(213,0,255)" stroke="rgb(213,0,255)" stroke-width="1" opacity="0.49411764705882355" d="M 315.5 23 L 321 24.5 L 318.5 25 L 315.5 24 L 315.5 23 Z " /><path fill="rgb(213,0,255)" stroke="rgb(213,0,255)" stroke-width="1" opacity="0.49411764705882355" d="M 322.5 25 L 328 26.5 L 325.5 27 L 322.5 26 L 322.5 25 Z " /><path fill="rgb(213,0,255)" stroke="rgb(213,0,255)" stroke-width="1" opacity="0.49411764705882355" d="M 335.5 29 L 342 31.5 L 340.5 32 L 335.5 30 L 335.5 29 Z " /><path fill="rgb(213,0,255)" stroke="rgb(213,0,255)" stroke-width="1" opacity="0.49411764705882355" d="M 343.5 32 L 347 33.5 L 345.5 34 L 343.5 32 Z " /><path fill="rgb(213,0,255)" stroke="rgb(213,0,255)" stroke-width="1" opacity="0.49411764705882355" d="M 348.5 34 L 354 36.5 L 352.5 37 L 348.5 35 L 348.5 34 Z " /><path fill="rgb(213,0,255)" stroke="rgb(213,0,255)" stroke-width="1" opacity="0.49411764705882355" d="M 355.5 37 Q 399.2 56.8 430 89.5 Q 460.3 120.2 478 163.5 L 477 163.5 Q 454.6 109.9 413.5 75 L 382.5 52 L 355.5 38 L 355.5 37 Z " /><path fill="rgb(213,0,255)" stroke="rgb(213,0,255)" stroke-width="1" opacity="0.49411764705882355" d="M 92.5 79 L 91.5 81 L 92.5 79 Z " /><path fill="rgb(213,0,255)" stroke="rgb(213,0,255)" stroke-width="1" opacity="0.49411764705882355" d="M 344.5 88 L 348 88.5 L 344.5 89 L 344.5 88 Z " /><path fill="rgb(213,0,255)" stroke="rgb(213,0,255)" stroke-width="1" opacity="0.49411764705882355" d="M 352.5 90 L 360 95.5 L 364 104.5 L 363 104.5 Q 361.4 95.6 354.5 92 L 352.5 90 Z " /><path fill="rgb(213,0,255)" stroke="rgb(213,0,255)" stroke-width="1" opacity="0.49411764705882355" d="M 154.5 94 L 153.5 96 L 154.5 94 Z " /><path fill="rgb(213,0,255)" stroke="rgb(213,0,255)" stroke-width="1" opacity="0.49411764705882355" d="M 364.5 106 L 365 195.5 L 363.5 197 L 288.5 197 L 288.5 196 L 364 196 L 364.5 106 Z " /><path fill="rgb(213,0,255)" stroke="rgb(213,0,255)" stroke-width="1" opacity="0.49411764705882355" d="M 221.5 155 L 222.5 157 L 221.5 155 Z " /><path fill="rgb(213,0,255)" stroke="rgb(213,0,255)" stroke-width="1" opacity="0.49411764705882355" d="M 227.5 160 L 261.5 195 L 227.5 160 Z " /><path fill="rgb(213,0,255)" stroke="rgb(213,0,255)" stroke-width="1" opacity="0.49411764705882355" d="M 478.5 165 L 480 168.5 L 479 168.5 L 478.5 165 Z " /><path fill="rgb(213,0,255)" stroke="rgb(213,0,255)" stroke-width="1" opacity="0.49411764705882355" d="M 218.5 168 L 254.5 205 L 218.5 168 Z " /><path fill="rgb(213,0,255)" stroke="rgb(213,0,255)" stroke-width="1" opacity="0.49411764705882355" d="M 480.5 170 L 487 189.5 L 486 189.5 L 480.5 170 Z " /><path fill="rgb(213,0,255)" stroke="rgb(213,0,255)" stroke-width="1" opacity="0.49411764705882355" d="M 487.5 191 L 490 201.5 L 489 201.5 L 487.5 191 Z " /><path fill="rgb(213,0,255)" stroke="rgb(213,0,255)" stroke-width="1" opacity="0.49411764705882355" d="M 490.5 203 L 491 205.5 L 490 205.5 L 490.5 203 Z " /><path fill="rgb(213,0,255)" stroke="rgb(213,0,255)" stroke-width="1" opacity="0.49411764705882355" d="M 361.5 207 L 374 207.5 L 361.5 208 L 361.5 207 Z " /><path fill="rgb(213,0,255)" stroke="rgb(213,0,255)" stroke-width="1" opacity="0.49411764705882355" d="M 491.5 207 L 492 210.5 L 491 210.5 L 491.5 207 Z " /><path fill="rgb(213,0,255)" stroke="rgb(213,0,255)" stroke-width="1" opacity="0.49411764705882355" d="M 377.5 208 L 381 208.5 L 377.5 209 L 377.5 208 Z " /><path fill="rgb(213,0,255)" stroke="rgb(213,0,255)" stroke-width="1" opacity="0.49411764705882355" d="M 382.5 209 Q 392.8 211.8 398 219.5 L 402 228.5 L 401 228.5 Q 398.9 218.6 391.5 214 L 382.5 210 L 382.5 209 Z " /><path fill="rgb(213,0,255)" stroke="rgb(213,0,255)" stroke-width="1" opacity="0.49411764705882355" d="M 492.5 212 L 493 216.5 L 492 216.5 L 492.5 212 Z " /><path fill="rgb(213,0,255)" stroke="rgb(213,0,255)" stroke-width="1" opacity="0.49411764705882355" d="M 493.5 218 L 494 222.5 L 493 222.5 L 493.5 218 Z " /><path fill="rgb(213,0,255)" stroke="rgb(213,0,255)" stroke-width="1" opacity="0.49411764705882355" d="M 494.5 225 L 495 231.5 L 494 231.5 L 494.5 225 Z " /><path fill="rgb(213,0,255)" stroke="rgb(213,0,255)" stroke-width="1" opacity="0.49411764705882355" d="M 227.5 226 L 231 227.5 L 229.5 228 L 227.5 226 Z " /><path fill="rgb(213,0,255)" stroke="rgb(213,0,255)" stroke-width="1" opacity="0.49411764705882355" d="M 236.5 230 L 251 242.5 L 241.5 234 Q 236.9 232.8 236.5 230 Z " /><path fill="rgb(213,0,255)" stroke="rgb(213,0,255)" stroke-width="1" opacity="0.49411764705882355" d="M 402.5 230 L 403 233.5 L 402 233.5 L 402.5 230 Z " /><path fill="rgb(213,0,255)" stroke="rgb(213,0,255)" stroke-width="1" opacity="0.49411764705882355" d="M 495.5 234 L 496 245.5 L 495 245.5 L 495.5 234 Z " /><path fill="rgb(213,0,255)" stroke="rgb(213,0,255)" stroke-width="1" opacity="0.49411764705882355" d="M 403.5 237 L 404 378.5 L 403 378.5 L 403.5 237 Z " /><path fill="rgb(213,0,255)" stroke="rgb(213,0,255)" stroke-width="1" opacity="0.49411764705882355" d="M 229.5 240 L 234 243.5 L 231.5 242 L 229.5 240 Z " /><path fill="rgb(213,0,255)" stroke="rgb(213,0,255)" stroke-width="1" opacity="0.49411764705882355" d="M 235.5 244 L 239.5 249 L 235.5 244 Z " /><path fill="rgb(213,0,255)" stroke="rgb(213,0,255)" stroke-width="1" opacity="0.49411764705882355" d="M 251.5 244 L 252.5 246 L 251.5 244 Z " /><path fill="rgb(213,0,255)" stroke="rgb(213,0,255)" stroke-width="1" opacity="0.49411764705882355" d="M 253.5 247 L 257 253.5 L 256 253.5 L 253.5 247 Z " /><path fill="rgb(213,0,255)" stroke="rgb(213,0,255)" stroke-width="1" opacity="0.49411764705882355" d="M 241.5 251 L 242.5 253 L 241.5 251 Z " /><path fill="rgb(213,0,255)" stroke="rgb(213,0,255)" stroke-width="1" opacity="0.49411764705882355" d="M 243.5 254 L 246 257.5 L 244 256.5 L 243.5 254 Z " /><path fill="rgb(213,0,255)" stroke="rgb(213,0,255)" stroke-width="1" opacity="0.49411764705882355" d="M 248.5 265 L 249 267.5 L 248 267.5 L 248.5 265 Z " /><path fill="rgb(213,0,255)" stroke="rgb(213,0,255)" stroke-width="1" opacity="0.49411764705882355" d="M 260.5 265 L 261 267.5 L 260 267.5 L 260.5 265 Z " /><path fill="rgb(213,0,255)" stroke="rgb(213,0,255)" stroke-width="1" opacity="0.49411764705882355" d="M 495.5 266 L 496 277.5 L 495 277.5 L 495.5 266 Z " /><path fill="rgb(213,0,255)" stroke="rgb(213,0,255)" stroke-width="1" opacity="0.49411764705882355" d="M 249.5 272 L 250 277.5 L 249 277.5 L 249.5 272 Z " /><path fill="rgb(213,0,255)" stroke="rgb(213,0,255)" stroke-width="1" opacity="0.49411764705882355" d="M 261.5 273 L 262 277.5 L 261 277.5 L 261.5 273 Z " /><path fill="rgb(213,0,255)" stroke="rgb(213,0,255)" stroke-width="1" opacity="0.49411764705882355" d="M 494.5 280 L 495 286.5 L 494 286.5 L 494.5 280 Z " /><path fill="rgb(213,0,255)" stroke="rgb(213,0,255)" stroke-width="1" opacity="0.49411764705882355" d="M 259.5 287 L 260 289.5 L 259 289.5 L 259.5 287 Z " /><path fill="rgb(213,0,255)" stroke="rgb(213,0,255)" stroke-width="1" opacity="0.49411764705882355" d="M 493.5 288 L 494 293.5 L 493 293.5 L 493.5 288 Z " /><path fill="rgb(213,0,255)" stroke="rgb(213,0,255)" stroke-width="1" opacity="0.49411764705882355" d="M 245.5 291 L 246 292.5 L 244 293.5 L 245.5 291 Z " /><path fill="rgb(213,0,255)" stroke="rgb(213,0,255)" stroke-width="1" opacity="0.49411764705882355" d="M 492.5 295 L 493 299.5 L 492 299.5 L 492.5 295 Z " /><path fill="rgb(213,0,255)" stroke="rgb(213,0,255)" stroke-width="1" opacity="0.49411764705882355" d="M 242.5 297 L 239.5 301 L 242.5 297 Z " /><path fill="rgb(213,0,255)" stroke="rgb(213,0,255)" stroke-width="1" opacity="0.49411764705882355" d="M 255.5 298 L 256 299.5 L 254 300.5 L 255.5 298 Z " /><path fill="rgb(213,0,255)" stroke="rgb(213,0,255)" stroke-width="1" opacity="0.49411764705882355" d="M 491.5 301 L 492 304.5 L 491 304.5 L 491.5 301 Z " /><path fill="rgb(213,0,255)" stroke="rgb(213,0,255)" stroke-width="1" opacity="0.49411764705882355" d="M 238.5 302 L 237.5 304 L 238.5 302 Z " /><path fill="rgb(213,0,255)" stroke="rgb(213,0,255)" stroke-width="1" opacity="0.49411764705882355" d="M 233.5 306 L 232.5 308 L 233.5 306 Z " /><path fill="rgb(213,0,255)" stroke="rgb(213,0,255)" stroke-width="1" opacity="0.49411764705882355" d="M 490.5 306 L 491 309.5 L 487.5 321 L 487 318.5 L 490.5 306 Z " /><path fill="rgb(213,0,255)" stroke="rgb(213,0,255)" stroke-width="1" opacity="0.49411764705882355" d="M 267.5 307 L 271 309.5 L 269.5 309 L 267.5 307 Z " /><path fill="rgb(213,0,255)" stroke="rgb(213,0,255)" stroke-width="1" opacity="0.49411764705882355" d="M 230.5 308 L 229.5 310 L 224.5 312 L 224.5 311 L 230.5 308 Z " /><path fill="rgb(213,0,255)" stroke="rgb(213,0,255)" stroke-width="1" opacity="0.49411764705882355" d="M 272.5 310 L 282 318.5 L 275.5 313 L 272.5 310 Z " /><path fill="rgb(213,0,255)" stroke="rgb(213,0,255)" stroke-width="1" opacity="0.49411764705882355" d="M 245.5 312 L 244.5 314 L 245.5 312 Z " /><path fill="rgb(213,0,255)" stroke="rgb(213,0,255)" stroke-width="1" opacity="0.49411764705882355" d="M 242.5 314 L 240.5 317 L 242.5 314 Z " /><path fill="rgb(213,0,255)" stroke="rgb(213,0,255)" stroke-width="1" opacity="0.49411764705882355" d="M 238.5 317 L 237.5 319 L 238.5 317 Z " /><path fill="rgb(213,0,255)" stroke="rgb(213,0,255)" stroke-width="1" opacity="0.49411764705882355" d="M 235.5 319 L 234.5 321 L 233 320.5 L 235.5 319 Z " /><path fill="rgb(213,0,255)" stroke="rgb(213,0,255)" stroke-width="1" opacity="0.49411764705882355" d="M 265.5 320 L 274 327.5 L 268.5 323 L 265.5 320 Z " /><path fill="rgb(213,0,255)" stroke="rgb(213,0,255)" stroke-width="1" opacity="0.49411764705882355" d="M 282.5 320 L 284.5 323 L 282.5 320 Z " /><path fill="rgb(213,0,255)" stroke="rgb(213,0,255)" stroke-width="1" opacity="0.49411764705882355" d="M 231.5 321 L 230.5 323 L 229 322.5 L 231.5 321 Z " /><path fill="rgb(213,0,255)" stroke="rgb(213,0,255)" stroke-width="1" opacity="0.49411764705882355" d="M 486.5 322 L 487 324.5 L 485.5 328 L 485 325.5 L 486.5 322 Z " /><path fill="rgb(213,0,255)" stroke="rgb(213,0,255)" stroke-width="1" opacity="0.49411764705882355" d="M 285.5 324 L 291 335.5 L 290 335.5 L 285.5 324 Z " /><path fill="rgb(213,0,255)" stroke="rgb(213,0,255)" stroke-width="1" opacity="0.49411764705882355" d="M 274.5 329 L 275.5 331 L 274.5 329 Z " /><path fill="rgb(213,0,255)" stroke="rgb(213,0,255)" stroke-width="1" opacity="0.49411764705882355" d="M 322.5 333 L 372 333.5 L 322.5 334 L 319.5 337 L 322.5 333 Z " /><path fill="rgb(213,0,255)" stroke="rgb(213,0,255)" stroke-width="1" opacity="0.49411764705882355" d="M 373.5 334 L 376 337.5 L 375 337.5 L 373.5 334 Z " /><path fill="rgb(213,0,255)" stroke="rgb(213,0,255)" stroke-width="1" opacity="0.49411764705882355" d="M 482.5 335 L 483 336.5 L 478.5 347 L 478 345.5 L 482.5 335 Z " /><path fill="rgb(213,0,255)" stroke="rgb(213,0,255)" stroke-width="1" opacity="0.49411764705882355" d="M 278.5 336 L 280 340.5 L 279 340.5 L 278.5 336 Z " /><path fill="rgb(213,0,255)" stroke="rgb(213,0,255)" stroke-width="1" opacity="0.49411764705882355" d="M 291.5 337 L 292 339.5 L 291 339.5 L 291.5 337 Z " /><path fill="rgb(213,0,255)" stroke="rgb(213,0,255)" stroke-width="1" opacity="0.49411764705882355" d="M 319.5 341 L 321.5 344 L 323.5 345 L 371 345.5 L 323.5 346 L 319 342.5 L 319.5 341 Z " /><path fill="rgb(213,0,255)" stroke="rgb(213,0,255)" stroke-width="1" opacity="0.49411764705882355" d="M 375.5 341 L 376 342.5 L 372.5 345 L 372.5 344 L 375 342.5 L 375.5 341 Z " /><path fill="rgb(213,0,255)" stroke="rgb(213,0,255)" stroke-width="1" opacity="0.49411764705882355" d="M 280.5 342 L 281 345.5 L 280 345.5 L 280.5 342 Z " /><path fill="rgb(213,0,255)" stroke="rgb(213,0,255)" stroke-width="1" opacity="0.49411764705882355" d="M 292.5 342 L 293 363.5 L 292 363.5 L 292.5 342 Z " /><path fill="rgb(213,0,255)" stroke="rgb(213,0,255)" stroke-width="1" opacity="0.49411764705882355" d="M 477.5 348 L 478 349.5 L 475.5 354 L 475 352.5 L 477.5 348 Z " /><path fill="rgb(213,0,255)" stroke="rgb(213,0,255)" stroke-width="1" opacity="0.49411764705882355" d="M 474.5 355 L 475 356.5 Q 453.9 401.4 419.5 433 Q 392.4 458.9 355.5 475 L 355.5 474 Q 398.7 454.7 429 422.5 Q 456.9 393.9 474.5 355 Z " /><path fill="rgb(213,0,255)" stroke="rgb(213,0,255)" stroke-width="1" opacity="0.49411764705882355" d="M 322.5 356 L 372.5 356 L 376 359.5 L 375.5 361 L 372.5 357 L 322.5 357 L 319.5 360 L 322.5 356 Z " /><path fill="rgb(213,0,255)" stroke="rgb(213,0,255)" stroke-width="1" opacity="0.49411764705882355" d="M 319.5 364 L 321.5 367 L 323 367.5 L 321.5 368 Q 317.9 366.9 319.5 364 Z " /><path fill="rgb(213,0,255)" stroke="rgb(213,0,255)" stroke-width="1" opacity="0.49411764705882355" d="M 375.5 364 L 376 365.5 L 372.5 368 L 372.5 367 L 375 365.5 L 375.5 364 Z " /><path fill="rgb(213,0,255)" stroke="rgb(213,0,255)" stroke-width="1" opacity="0.49411764705882355" d="M 292.5 366 L 293 369.5 L 292 369.5 L 292.5 366 Z " /><path fill="rgb(213,0,255)" stroke="rgb(213,0,255)" stroke-width="1" opacity="0.49411764705882355" d="M 279.5 369 L 280 370.5 L 278 371.5 L 279.5 369 Z " /><path fill="rgb(213,0,255)" stroke="rgb(213,0,255)" stroke-width="1" opacity="0.49411764705882355" d="M 275.5 374 L 274.5 376 L 275.5 374 Z " /><path fill="rgb(213,0,255)" stroke="rgb(213,0,255)" stroke-width="1" opacity="0.49411764705882355" d="M 290.5 374 L 291 375.5 L 287.5 380 L 289 377.5 L 290.5 374 Z " /><path fill="rgb(213,0,255)" stroke="rgb(213,0,255)" stroke-width="1" opacity="0.49411764705882355" d="M 267.5 377 L 271 377.5 L 267.5 378 L 267.5 377 Z " /><path fill="rgb(213,0,255)" stroke="rgb(213,0,255)" stroke-width="1" opacity="0.49411764705882355" d="M 285.5 382 L 284.5 384 L 281.5 386 L 283.5 383 L 285.5 382 Z " /><path fill="rgb(213,0,255)" stroke="rgb(213,0,255)" stroke-width="1" opacity="0.49411764705882355" d="M 402.5 382 L 403 385.5 L 402 385.5 L 402.5 382 Z " /><path fill="rgb(213,0,255)" stroke="rgb(213,0,255)" stroke-width="1" opacity="0.49411764705882355" d="M 229.5 389 L 272 389.5 L 229.5 390 L 229.5 389 Z " /><path fill="rgb(213,0,255)" stroke="rgb(213,0,255)" stroke-width="1" opacity="0.49411764705882355" d="M 400.5 390 L 401 391.5 L 392.5 402 L 381.5 407 L 381.5 406 Q 390.9 403.9 396 397.5 L 400.5 390 Z " /><path fill="rgb(213,0,255)" stroke="rgb(213,0,255)" stroke-width="1" opacity="0.49411764705882355" d="M 374.5 407 L 380 407.5 L 374.5 408 L 374.5 407 Z " /><path fill="rgb(213,0,255)" stroke="rgb(213,0,255)" stroke-width="1" opacity="0.49411764705882355" d="M 352.5 475 L 354 475.5 L 343.5 480 L 343.5 479 L 352.5 475 Z " /><path fill="rgb(213,0,255)" stroke="rgb(213,0,255)" stroke-width="1" opacity="0.49411764705882355" d="M 340.5 480 L 342 480.5 L 335.5 483 L 335.5 482 L 340.5 480 Z " /><path fill="rgb(213,0,255)" stroke="rgb(213,0,255)" stroke-width="1" opacity="0.49411764705882355" d="M 325.5 485 L 328 485.5 L 322.5 487 L 322.5 486 L 325.5 485 Z " /><path fill="rgb(213,0,255)" stroke="rgb(213,0,255)" stroke-width="1" opacity="0.49411764705882355" d="M 318.5 487 L 321 487.5 L 315.5 489 L 315.5 488 L 318.5 487 Z " /><path fill="rgb(213,0,255)" stroke="rgb(213,0,255)" stroke-width="1" opacity="0.49411764705882355" d="M 310.5 489 L 314 489.5 L 310.5 490 L 310.5 489 Z " /><path fill="rgb(213,0,255)" stroke="rgb(213,0,255)" stroke-width="1" opacity="0.49411764705882355" d="M 306.5 490 L 309 490.5 L 306.5 491 L 306.5 490 Z " /><path fill="rgb(213,0,255)" stroke="rgb(213,0,255)" stroke-width="1" opacity="0.49411764705882355" d="M 301.5 491 L 305 491.5 L 301.5 492 L 301.5 491 Z " /><path fill="rgb(213,0,255)" stroke="rgb(213,0,255)" stroke-width="1" opacity="0.49411764705882355" d="M 296.5 492 L 300 492.5 L 296.5 493 L 296.5 492 Z " /><path fill="rgb(213,0,255)" stroke="rgb(213,0,255)" stroke-width="1" opacity="0.49411764705882355" d="M 289.5 493 L 294 493.5 L 289.5 494 L 289.5 493 Z " /><path fill="rgb(213,0,255)" stroke="rgb(213,0,255)" stroke-width="1" opacity="0.49411764705882355" d="M 225.5 494 L 230 494.5 L 225.5 495 L 225.5 494 Z " /><path fill="rgb(213,0,255)" stroke="rgb(213,0,255)" stroke-width="1" opacity="0.49411764705882355" d="M 282.5 494 L 287 494.5 L 282.5 495 L 282.5 494 Z " /><path fill="rgb(213,0,255)" stroke="rgb(213,0,255)" stroke-width="1" opacity="0.49411764705882355" d="M 234.5 495 L 241 495.5 L 234.5 496 L 234.5 495 Z " /><path fill="rgb(213,0,255)" stroke="rgb(213,0,255)" stroke-width="1" opacity="0.49411764705882355" d="M 271.5 495 L 278 495.5 L 271.5 496 L 271.5 495 Z " /><path fill="rgb(139,0,255)" stroke="rgb(139,0,255)" stroke-width="1" opacity="0.5450980392156862" d="M 241.5 16 L 245 16.5 L 241.5 17 L 241.5 16 Z " /><path fill="rgb(139,0,255)" stroke="rgb(139,0,255)" stroke-width="1" opacity="0.5450980392156862" d="M 268.5 16 L 271 16.5 L 268.5 17 L 268.5 16 Z " /><path fill="rgb(139,0,255)" stroke="rgb(139,0,255)" stroke-width="1" opacity="0.5450980392156862" d="M 213.5 19 L 216 19.5 L 213.5 20 L 213.5 19 Z " /><path fill="rgb(139,0,255)" stroke="rgb(139,0,255)" stroke-width="1" opacity="0.5450980392156862" d="M 208.5 20 L 211 20.5 L 208.5 21 L 208.5 20 Z " /><path fill="rgb(139,0,255)" stroke="rgb(139,0,255)" stroke-width="1" opacity="0.5450980392156862" d="M 203.5 21 L 206 21.5 L 203.5 22 L 203.5 21 Z " /><path fill="rgb(139,0,255)" stroke="rgb(139,0,255)" stroke-width="1" opacity="0.5450980392156862" d="M 194.5 23 L 197 23.5 L 194.5 24 L 194.5 23 Z " /><path fill="rgb(139,0,255)" stroke="rgb(139,0,255)" stroke-width="1" opacity="0.5450980392156862" d="M 175.5 29 L 177 29.5 L 173.5 31 L 173.5 30 L 175.5 29 Z " /><path fill="rgb(139,0,255)" stroke="rgb(139,0,255)" stroke-width="1" opacity="0.5450980392156862" d="M 167.5 32 L 169 32.5 L 165.5 34 L 165.5 33 L 167.5 32 Z " /><path fill="rgb(139,0,255)" stroke="rgb(139,0,255)" stroke-width="1" opacity="0.5450980392156862" d="M 162.5 34 L 164 34.5 L 158.5 37 L 158.5 36 L 162.5 34 Z " /><path fill="rgb(139,0,255)" stroke="rgb(139,0,255)" stroke-width="1" opacity="0.5450980392156862" d="M 153.5 38 L 155 38.5 L 140.5 46 L 141.5 44 L 153.5 38 Z " /><path fill="rgb(139,0,255)" stroke="rgb(139,0,255)" stroke-width="1" opacity="0.5450980392156862" d="M 138.5 46 L 137.5 48 Q 105.5 65 82 90.5 Q 64.2 109.2 50.5 132 L 51 130.5 Q 67.2 102.2 90.5 81 Q 111.6 60.6 138.5 46 Z " /><path fill="rgb(139,0,255)" stroke="rgb(139,0,255)" stroke-width="1" opacity="0.5450980392156862" d="M 164.5 88 L 168 88.5 L 164.5 89 L 164.5 88 Z " /><path fill="rgb(139,0,255)" stroke="rgb(139,0,255)" stroke-width="1" opacity="0.5450980392156862" d="M 157.5 91 L 155.5 94 L 153 95.5 L 148.5 104 L 148 102.5 L 154.5 93 L 157.5 91 Z " /><path fill="rgb(139,0,255)" stroke="rgb(139,0,255)" stroke-width="1" opacity="0.5450980392156862" d="M 147.5 105 L 148 148.5 L 147 148.5 L 147.5 105 Z " /><path fill="rgb(139,0,255)" stroke="rgb(139,0,255)" stroke-width="1" opacity="0.5450980392156862" d="M 49.5 133 L 49 134.5 L 46.5 139 L 47 137.5 L 49.5 133 Z " /><path fill="rgb(139,0,255)" stroke="rgb(139,0,255)" stroke-width="1" opacity="0.5450980392156862" d="M 45.5 140 L 45 141.5 L 37.5 157 L 37 155.5 L 45.5 140 Z " /><path fill="rgb(139,0,255)" stroke="rgb(139,0,255)" stroke-width="1" opacity="0.5450980392156862" d="M 203.5 149 L 207 149.5 L 203.5 150 L 203.5 149 Z " /><path fill="rgb(139,0,255)" stroke="rgb(139,0,255)" stroke-width="1" opacity="0.5450980392156862" d="M 215.5 152 L 218 153.5 L 216.5 153 L 215.5 152 Z " /><path fill="rgb(139,0,255)" stroke="rgb(139,0,255)" stroke-width="1" opacity="0.5450980392156862" d="M 223.5 157 L 227 159.5 L 224.5 158 L 223.5 157 Z " /><path fill="rgb(139,0,255)" stroke="rgb(139,0,255)" stroke-width="1" opacity="0.5450980392156862" d="M 36.5 158 L 37 159.5 L 34.5 164 L 34 162.5 L 36.5 158 Z " /><path fill="rgb(139,0,255)" stroke="rgb(139,0,255)" stroke-width="1" opacity="0.5450980392156862" d="M 135.5 160 L 202 160.5 L 135.5 161 L 135.5 160 Z " /><path fill="rgb(139,0,255)" stroke="rgb(139,0,255)" stroke-width="1" opacity="0.5450980392156862" d="M 130.5 161 L 133 161.5 L 130.5 162 L 130.5 161 Z " /><path fill="rgb(139,0,255)" stroke="rgb(139,0,255)" stroke-width="1" opacity="0.5450980392156862" d="M 204.5 161 L 207 161.5 L 204.5 162 L 204.5 161 Z " /><path fill="rgb(139,0,255)" stroke="rgb(139,0,255)" stroke-width="1" opacity="0.5450980392156862" d="M 127.5 162 L 129 162.5 Q 119.8 165.3 115 172.5 Q 110.6 177.6 109.5 186 L 109 182.5 Q 112.4 170.9 121.5 165 L 127.5 162 Z " /><path fill="rgb(139,0,255)" stroke="rgb(139,0,255)" stroke-width="1" opacity="0.5450980392156862" d="M 213.5 164 L 218 167.5 L 215.5 166 L 213.5 164 Z " /><path fill="rgb(139,0,255)" stroke="rgb(139,0,255)" stroke-width="1" opacity="0.5450980392156862" d="M 33.5 165 L 34 166.5 L 32.5 169 L 32 167.5 L 33.5 165 Z " /><path fill="rgb(139,0,255)" stroke="rgb(139,0,255)" stroke-width="1" opacity="0.5450980392156862" d="M 31.5 170 L 32 171.5 L 28.5 180 L 28 178.5 L 31.5 170 Z " /><path fill="rgb(139,0,255)" stroke="rgb(139,0,255)" stroke-width="1" opacity="0.5450980392156862" d="M 27.5 181 L 28 183.5 L 25.5 190 L 25 187.5 L 27.5 181 Z " /><path fill="rgb(139,0,255)" stroke="rgb(139,0,255)" stroke-width="1" opacity="0.5450980392156862" d="M 108.5 189 L 109 379.5 L 108 379.5 L 108.5 189 Z " /><path fill="rgb(139,0,255)" stroke="rgb(139,0,255)" stroke-width="1" opacity="0.5450980392156862" d="M 24.5 191 L 25 193.5 L 22.5 202 L 22 198.5 L 24.5 191 Z " /><path fill="rgb(139,0,255)" stroke="rgb(139,0,255)" stroke-width="1" opacity="0.5450980392156862" d="M 266.5 196 L 288 196.5 L 266.5 197 L 266.5 196 Z " /><path fill="rgb(139,0,255)" stroke="rgb(139,0,255)" stroke-width="1" opacity="0.5450980392156862" d="M 21.5 203 L 22 205.5 L 21 205.5 L 21.5 203 Z " /><path fill="rgb(139,0,255)" stroke="rgb(139,0,255)" stroke-width="1" opacity="0.5450980392156862" d="M 259.5 206 L 260.5 208 L 259.5 206 Z " /><path fill="rgb(139,0,255)" stroke="rgb(139,0,255)" stroke-width="1" opacity="0.5450980392156862" d="M 20.5 207 L 21 210.5 L 20 210.5 L 20.5 207 Z " /><path fill="rgb(139,0,255)" stroke="rgb(139,0,255)" stroke-width="1" opacity="0.5450980392156862" d="M 19.5 212 L 20 216.5 L 19 216.5 L 19.5 212 Z " /><path fill="rgb(139,0,255)" stroke="rgb(139,0,255)" stroke-width="1" opacity="0.5450980392156862" d="M 18.5 218 L 19 222.5 L 18 222.5 L 18.5 218 Z " /><path fill="rgb(139,0,255)" stroke="rgb(139,0,255)" stroke-width="1" opacity="0.5450980392156862" d="M 207.5 223 L 213 223.5 L 207.5 224 L 207.5 223 Z " /><path fill="rgb(139,0,255)" stroke="rgb(139,0,255)" stroke-width="1" opacity="0.5450980392156862" d="M 199.5 224 L 203 224.5 L 199.5 225 L 199.5 224 Z " /><path fill="rgb(139,0,255)" stroke="rgb(139,0,255)" stroke-width="1" opacity="0.5450980392156862" d="M 17.5 225 L 18 231.5 L 17 231.5 L 17.5 225 Z " /><path fill="rgb(139,0,255)" stroke="rgb(139,0,255)" stroke-width="1" opacity="0.5450980392156862" d="M 194.5 225 L 197 225.5 L 189.5 228 L 189.5 227 L 194.5 225 Z " /><path fill="rgb(139,0,255)" stroke="rgb(139,0,255)" stroke-width="1" opacity="0.5450980392156862" d="M 184.5 229 L 186 229.5 L 183.5 231 L 184.5 229 Z " /><path fill="rgb(139,0,255)" stroke="rgb(139,0,255)" stroke-width="1" opacity="0.5450980392156862" d="M 181.5 231 L 180.5 233 L 181.5 231 Z " /><path fill="rgb(139,0,255)" stroke="rgb(139,0,255)" stroke-width="1" opacity="0.5450980392156862" d="M 178.5 233 L 174.5 238 L 173 237.5 L 178.5 233 Z " /><path fill="rgb(139,0,255)" stroke="rgb(139,0,255)" stroke-width="1" opacity="0.5450980392156862" d="M 16.5 234 L 17 245.5 L 16 245.5 L 16.5 234 Z " /><path fill="rgb(139,0,255)" stroke="rgb(139,0,255)" stroke-width="1" opacity="0.5450980392156862" d="M 202.5 235 L 208 235.5 L 202.5 236 L 202.5 235 Z " /><path fill="rgb(139,0,255)" stroke="rgb(139,0,255)" stroke-width="1" opacity="0.5450980392156862" d="M 211.5 235 L 217 235.5 L 211.5 236 L 211.5 235 Z " /><path fill="rgb(139,0,255)" stroke="rgb(139,0,255)" stroke-width="1" opacity="0.5450980392156862" d="M 198.5 236 L 201 236.5 L 198.5 237 L 198.5 236 Z " /><path fill="rgb(139,0,255)" stroke="rgb(139,0,255)" stroke-width="1" opacity="0.5450980392156862" d="M 195.5 237 L 197 237.5 L 193.5 239 L 193.5 238 L 195.5 237 Z " /><path fill="rgb(139,0,255)" stroke="rgb(139,0,255)" stroke-width="1" opacity="0.5450980392156862" d="M 171.5 239 L 172 240.5 Q 164.5 247 161.5 258 L 161 256.5 Q 164.5 246 171.5 239 Z " /><path fill="rgb(139,0,255)" stroke="rgb(139,0,255)" stroke-width="1" opacity="0.5450980392156862" d="M 191.5 239 L 190.5 241 Q 182 244.5 177.5 252 L 186.5 242 L 191.5 239 Z " /><path fill="rgb(139,0,255)" stroke="rgb(139,0,255)" stroke-width="1" opacity="0.5450980392156862" d="M 240.5 249 L 241.5 251 Q 238.7 251.7 240.5 249 Z " /><path fill="rgb(139,0,255)" stroke="rgb(139,0,255)" stroke-width="1" opacity="0.5450980392156862" d="M 176.5 253 L 176 254.5 L 174.5 257 L 175 255.5 L 176.5 253 Z " /><path fill="rgb(139,0,255)" stroke="rgb(139,0,255)" stroke-width="1" opacity="0.5450980392156862" d="M 173.5 258 L 174 259.5 L 172.5 262 L 172 260.5 L 173.5 258 Z " /><path fill="rgb(139,0,255)" stroke="rgb(139,0,255)" stroke-width="1" opacity="0.5450980392156862" d="M 160.5 259 L 161 261.5 L 159.5 267 L 159 262.5 L 160.5 259 Z " /><path fill="rgb(139,0,255)" stroke="rgb(139,0,255)" stroke-width="1" opacity="0.5450980392156862" d="M 171.5 263 L 172 265.5 L 171 265.5 L 171.5 263 Z " /><path fill="rgb(139,0,255)" stroke="rgb(139,0,255)" stroke-width="1" opacity="0.5450980392156862" d="M 16.5 266 L 17 277.5 L 16 277.5 L 16.5 266 Z " /><path fill="rgb(139,0,255)" stroke="rgb(139,0,255)" stroke-width="1" opacity="0.5450980392156862" d="M 170.5 267 L 171 271.5 L 170 271.5 L 170.5 267 Z " /><path fill="rgb(139,0,255)" stroke="rgb(139,0,255)" stroke-width="1" opacity="0.5450980392156862" d="M 158.5 268 L 159 282.5 L 158 282.5 L 158.5 268 Z " /><path fill="rgb(139,0,255)" stroke="rgb(139,0,255)" stroke-width="1" opacity="0.5450980392156862" d="M 170.5 277 L 171 282.5 L 170 282.5 L 170.5 277 Z " /><path fill="rgb(139,0,255)" stroke="rgb(139,0,255)" stroke-width="1" opacity="0.5450980392156862" d="M 17.5 280 L 18 286.5 L 17 286.5 L 17.5 280 Z " /><path fill="rgb(139,0,255)" stroke="rgb(139,0,255)" stroke-width="1" opacity="0.5450980392156862" d="M 159.5 284 L 160 287.5 L 159 287.5 L 159.5 284 Z " /><path fill="rgb(139,0,255)" stroke="rgb(139,0,255)" stroke-width="1" opacity="0.5450980392156862" d="M 171.5 284 Q 175.3 299.2 186.5 307 L 189 308.5 L 187.5 308 L 177 298.5 Q 171.3 292.8 171.5 284 Z " /><path fill="rgb(139,0,255)" stroke="rgb(139,0,255)" stroke-width="1" opacity="0.5450980392156862" d="M 18.5 288 L 19 293.5 L 18 293.5 L 18.5 288 Z " /><path fill="rgb(139,0,255)" stroke="rgb(139,0,255)" stroke-width="1" opacity="0.5450980392156862" d="M 161.5 292 L 163 295.5 L 162 295.5 L 161.5 292 Z " /><path fill="rgb(139,0,255)" stroke="rgb(139,0,255)" stroke-width="1" opacity="0.5450980392156862" d="M 19.5 295 L 20 299.5 L 19 299.5 L 19.5 295 Z " /><path fill="rgb(139,0,255)" stroke="rgb(139,0,255)" stroke-width="1" opacity="0.5450980392156862" d="M 164.5 299 L 167 302.5 L 165 301.5 L 164.5 299 Z " /><path fill="rgb(139,0,255)" stroke="rgb(139,0,255)" stroke-width="1" opacity="0.5450980392156862" d="M 20.5 301 L 21 304.5 L 20 304.5 L 20.5 301 Z " /><path fill="rgb(139,0,255)" stroke="rgb(139,0,255)" stroke-width="1" opacity="0.5450980392156862" d="M 162.5 303 L 165 303.5 L 162.5 304 L 162.5 303 Z " /><path fill="rgb(139,0,255)" stroke="rgb(139,0,255)" stroke-width="1" opacity="0.5450980392156862" d="M 236.5 304 L 235.5 306 L 234 305.5 L 236.5 304 Z " /><path fill="rgb(139,0,255)" stroke="rgb(139,0,255)" stroke-width="1" opacity="0.5450980392156862" d="M 156.5 305 L 158 305.5 L 154.5 307 L 154.5 306 L 156.5 305 Z " /><path fill="rgb(139,0,255)" stroke="rgb(139,0,255)" stroke-width="1" opacity="0.5450980392156862" d="M 21.5 306 L 22 308.5 L 21 308.5 L 21.5 306 Z " /><path fill="rgb(139,0,255)" stroke="rgb(139,0,255)" stroke-width="1" opacity="0.5450980392156862" d="M 150.5 308 L 149.5 310 L 146.5 312 L 148.5 309 L 150.5 308 Z " /><path fill="rgb(139,0,255)" stroke="rgb(139,0,255)" stroke-width="1" opacity="0.5450980392156862" d="M 190.5 309 L 193 310.5 L 191.5 311 L 190.5 309 Z " /><path fill="rgb(139,0,255)" stroke="rgb(139,0,255)" stroke-width="1" opacity="0.5450980392156862" d="M 22.5 310 L 25 320.5 L 24 320.5 L 22.5 310 Z " /><path fill="rgb(139,0,255)" stroke="rgb(139,0,255)" stroke-width="1" opacity="0.5450980392156862" d="M 144.5 312 L 137 320.5 L 131.5 330 L 131 328.5 Q 136 318.5 144.5 312 Z " /><path fill="rgb(139,0,255)" stroke="rgb(139,0,255)" stroke-width="1" opacity="0.5450980392156862" d="M 173.5 312 L 181 317.5 L 178.5 316 L 173.5 313 L 170.5 314 L 170.5 313 L 173.5 312 Z " /><path fill="rgb(139,0,255)" stroke="rgb(139,0,255)" stroke-width="1" opacity="0.5450980392156862" d="M 199.5 313 L 202 313.5 L 199.5 314 L 199.5 313 Z " /><path fill="rgb(139,0,255)" stroke="rgb(139,0,255)" stroke-width="1" opacity="0.5450980392156862" d="M 217.5 313 L 220 313.5 L 217.5 314 L 217.5 313 Z " /><path fill="rgb(139,0,255)" stroke="rgb(139,0,255)" stroke-width="1" opacity="0.5450980392156862" d="M 167.5 314 L 169 314.5 L 164.5 316 L 164.5 315 L 167.5 314 Z " /><path fill="rgb(139,0,255)" stroke="rgb(139,0,255)" stroke-width="1" opacity="0.5450980392156862" d="M 204.5 314 L 216 314.5 L 204.5 315 L 204.5 314 Z " /><path fill="rgb(139,0,255)" stroke="rgb(139,0,255)" stroke-width="1" opacity="0.5450980392156862" d="M 161.5 316 L 163 316.5 L 157.5 319 L 157.5 318 L 161.5 316 Z " /><path fill="rgb(139,0,255)" stroke="rgb(139,0,255)" stroke-width="1" opacity="0.5450980392156862" d="M 182.5 318 L 191 322.5 L 189.5 323 L 183.5 320 L 182.5 318 Z " /><path fill="rgb(139,0,255)" stroke="rgb(139,0,255)" stroke-width="1" opacity="0.5450980392156862" d="M 155.5 319 L 154.5 321 L 145 329.5 L 139.5 342 L 139 339.5 L 142 332.5 L 148 324 L 155.5 319 Z " /><path fill="rgb(139,0,255)" stroke="rgb(139,0,255)" stroke-width="1" opacity="0.5450980392156862" d="M 25.5 322 L 27 327.5 L 26 327.5 L 25.5 322 Z " /><path fill="rgb(139,0,255)" stroke="rgb(139,0,255)" stroke-width="1" opacity="0.5450980392156862" d="M 228.5 322 L 227.5 324 L 228.5 322 Z " /><path fill="rgb(139,0,255)" stroke="rgb(139,0,255)" stroke-width="1" opacity="0.5450980392156862" d="M 195.5 324 L 198 324.5 L 195.5 325 L 195.5 324 Z " /><path fill="rgb(139,0,255)" stroke="rgb(139,0,255)" stroke-width="1" opacity="0.5450980392156862" d="M 199.5 325 L 203 325.5 L 199.5 326 L 199.5 325 Z " /><path fill="rgb(139,0,255)" stroke="rgb(139,0,255)" stroke-width="1" opacity="0.5450980392156862" d="M 217.5 325 L 221 325.5 L 217.5 326 L 217.5 325 Z " /><path fill="rgb(139,0,255)" stroke="rgb(139,0,255)" stroke-width="1" opacity="0.5450980392156862" d="M 206.5 326 L 213 326.5 L 206.5 327 L 206.5 326 Z " /><path fill="rgb(139,0,255)" stroke="rgb(139,0,255)" stroke-width="1" opacity="0.5450980392156862" d="M 29.5 335 L 32 341.5 L 31 341.5 L 29.5 335 Z " /><path fill="rgb(139,0,255)" stroke="rgb(139,0,255)" stroke-width="1" opacity="0.5450980392156862" d="M 128.5 336 L 129 338.5 L 128 338.5 L 128.5 336 Z " /><path fill="rgb(139,0,255)" stroke="rgb(139,0,255)" stroke-width="1" opacity="0.5450980392156862" d="M 127.5 340 L 128 343.5 L 127 343.5 L 127.5 340 Z " /><path fill="rgb(139,0,255)" stroke="rgb(139,0,255)" stroke-width="1" opacity="0.5450980392156862" d="M 32.5 343 L 34 346.5 L 33 346.5 L 32.5 343 Z " /><path fill="rgb(139,0,255)" stroke="rgb(139,0,255)" stroke-width="1" opacity="0.5450980392156862" d="M 138.5 344 L 139 366.5 L 138 366.5 L 138.5 344 Z " /><path fill="rgb(139,0,255)" stroke="rgb(139,0,255)" stroke-width="1" opacity="0.5450980392156862" d="M 126.5 347 L 127 365.5 L 126 365.5 L 126.5 347 Z " /><path fill="rgb(139,0,255)" stroke="rgb(139,0,255)" stroke-width="1" opacity="0.5450980392156862" d="M 34.5 348 L 37 353.5 L 36 353.5 L 34.5 348 Z " /><path fill="rgb(139,0,255)" stroke="rgb(139,0,255)" stroke-width="1" opacity="0.5450980392156862" d="M 37.5 355 Q 56.8 397.7 88.5 428 Q 110.6 449.9 139 465.5 L 137.5 465 Q 104.3 447.2 80 420.5 L 56 390.5 L 44 370.5 L 37 356.5 L 37.5 355 Z " /><path fill="rgb(139,0,255)" stroke="rgb(139,0,255)" stroke-width="1" opacity="0.5450980392156862" d="M 127.5 368 L 130 375.5 L 128 374.5 L 127.5 368 Z " /><path fill="rgb(139,0,255)" stroke="rgb(139,0,255)" stroke-width="1" opacity="0.5450980392156862" d="M 139.5 368 L 144.5 375 L 147 376.5 L 145.5 376 L 140 371.5 L 139.5 368 Z " /><path fill="rgb(139,0,255)" stroke="rgb(139,0,255)" stroke-width="1" opacity="0.5450980392156862" d="M 277.5 372 L 278 373.5 L 276 374.5 L 277.5 372 Z " /><path fill="rgb(139,0,255)" stroke="rgb(139,0,255)" stroke-width="1" opacity="0.5450980392156862" d="M 130.5 377 L 136.5 384 L 143 387.5 L 141.5 388 L 131 379.5 L 130.5 377 Z " /><path fill="rgb(139,0,255)" stroke="rgb(139,0,255)" stroke-width="1" opacity="0.5450980392156862" d="M 148.5 377 L 152 377.5 L 148.5 378 L 148.5 377 Z " /><path fill="rgb(139,0,255)" stroke="rgb(139,0,255)" stroke-width="1" opacity="0.5450980392156862" d="M 286.5 380 L 287 382 L 284.5 383 L 286.5 380 Z " /><path fill="rgb(139,0,255)" stroke="rgb(139,0,255)" stroke-width="1" opacity="0.5450980392156862" d="M 109.5 382 L 110 385.5 L 109 385.5 L 109.5 382 Z " /><path fill="rgb(139,0,255)" stroke="rgb(139,0,255)" stroke-width="1" opacity="0.5450980392156862" d="M 144.5 388 L 147 388.5 L 144.5 389 L 144.5 388 Z " /><path fill="rgb(139,0,255)" stroke="rgb(139,0,255)" stroke-width="1" opacity="0.5450980392156862" d="M 148.5 389 L 229 389.5 L 148.5 390 L 148.5 389 Z " /><path fill="rgb(139,0,255)" stroke="rgb(139,0,255)" stroke-width="1" opacity="0.5450980392156862" d="M 111.5 390 L 113 392.5 L 111 391.5 L 111.5 390 Z " /><path fill="rgb(139,0,255)" stroke="rgb(139,0,255)" stroke-width="1" opacity="0.5450980392156862" d="M 113.5 394 L 119.5 401 L 131 406.5 L 128.5 407 Q 120.1 403.9 115 397.5 L 113.5 394 Z " /><path fill="rgb(139,0,255)" stroke="rgb(139,0,255)" stroke-width="1" opacity="0.5450980392156862" d="M 132.5 407 L 137 407.5 L 132.5 408 L 132.5 407 Z " /><path fill="rgb(139,0,255)" stroke="rgb(139,0,255)" stroke-width="1" opacity="0.5450980392156862" d="M 140.5 466 L 157 474.5 L 155.5 475 L 141.5 468 L 140.5 466 Z " /><path fill="rgb(139,0,255)" stroke="rgb(139,0,255)" stroke-width="1" opacity="0.5450980392156862" d="M 160.5 476 L 164 477.5 L 162.5 478 L 160.5 476 Z " /><path fill="rgb(139,0,255)" stroke="rgb(139,0,255)" stroke-width="1" opacity="0.5450980392156862" d="M 165.5 478 L 169 479.5 L 167.5 480 L 165.5 478 Z " /><path fill="rgb(139,0,255)" stroke="rgb(139,0,255)" stroke-width="1" opacity="0.5450980392156862" d="M 170.5 480 L 177 482.5 L 175.5 483 L 170.5 481 L 170.5 480 Z " /><path fill="rgb(139,0,255)" stroke="rgb(139,0,255)" stroke-width="1" opacity="0.5450980392156862" d="M 184.5 485 L 187 485.5 L 184.5 486 L 184.5 485 Z " /><path fill="rgb(139,0,255)" stroke="rgb(139,0,255)" stroke-width="1" opacity="0.5450980392156862" d="M 191.5 487 L 194 487.5 L 191.5 488 L 191.5 487 Z " /><path fill="rgb(139,0,255)" stroke="rgb(139,0,255)" stroke-width="1" opacity="0.5450980392156862" d="M 195.5 488 L 201 489.5 L 198.5 490 L 195.5 489 L 195.5 488 Z " /><path fill="rgb(139,0,255)" stroke="rgb(139,0,255)" stroke-width="1" opacity="0.5450980392156862" d="M 203.5 490 L 206 490.5 L 203.5 491 L 203.5 490 Z " /><path fill="rgb(139,0,255)" stroke="rgb(139,0,255)" stroke-width="1" opacity="0.5450980392156862" d="M 208.5 491 L 211 491.5 L 208.5 492 L 208.5 491 Z " /><path fill="rgb(139,0,255)" stroke="rgb(139,0,255)" stroke-width="1" opacity="0.5450980392156862" d="M 220.5 493 L 223 493.5 L 220.5 494 L 220.5 493 Z " /><path fill="rgb(139,0,255)" stroke="rgb(139,0,255)" stroke-width="1" opacity="0.5450980392156862" d="M 241.5 495 L 244 495.5 L 241.5 496 L 241.5 495 Z " /><path fill="rgb(139,0,255)" stroke="rgb(139,0,255)" stroke-width="1" opacity="0.5450980392156862" d="M 267.5 495 L 271 495.5 L 267.5 496 L 267.5 495 Z " /><path fill="rgb(143,0,255)" stroke="rgb(143,0,255)" stroke-width="1" opacity="0.996078431372549" d="M 99.5 74 L 97 77.5 L 97 434.5 L 100 437.5 L 89.5 428 L 84 423.5 Q 51 390 32 342.5 L 27 328.5 L 20 300.5 L 18 280.5 L 17 279.5 L 16 246.5 L 17 245.5 L 17 232.5 L 18 231.5 L 18 223.5 L 21 206.5 L 28 180.5 L 37 157.5 Q 57 114 89.5 83 L 99.5 74 Z " /><path fill="rgb(182,0,255)" stroke="rgb(182,0,255)" stroke-width="1" opacity="0.9764705882352941" d="M 254.5 16 L 262.5 17 L 266.5 16 L 267.5 17 L 280.5 17 L 281.5 18 L 295.5 19 L 332 28 L 332 88 L 229 88 L 229 18.5 Q 229 17.5 233.5 18 L 234.5 17 L 253.5 17 L 254.5 16 Z " /><path fill="rgb(182,0,255)" stroke="rgb(182,0,255)" stroke-width="1" opacity="0.9764705882352941" d="M 229.5 164 L 262.5 196 L 266.5 197 L 332 197 L 332 207 L 360.5 207 L 360.5 208 L 264.5 208 L 256.5 205 L 229 177.5 L 229.5 164 Z " /><path fill="rgb(182,0,255)" stroke="rgb(182,0,255)" stroke-width="1" opacity="0.9764705882352941" d="M 229.5 228 Q 240.8 232.2 248 240.5 L 258 257.5 L 261 270.5 L 260 272.5 Q 262.3 273.8 261 278.5 L 259 289.5 L 253 304 L 258.5 304 L 269.5 309 L 281 318.5 Q 287.5 326 291 336.5 L 292 341.5 L 292 370.5 Q 289.3 380.3 281.5 385 L 272.5 389 L 229 389 L 229 378.5 L 229.5 378 L 270.5 378 L 278 373.5 L 281 368.5 L 281 342.5 Q 277.6 327.4 266.5 320 Q 257.2 314.3 244.5 312 L 229.5 322 L 229 310 Q 237.9 307 243 298.5 Q 248.1 291.6 250 281.5 L 250 268.5 L 247 258.5 L 239 246 L 229 240 L 229.5 228 Z " /><path fill="rgb(182,0,255)" stroke="rgb(182,0,255)" stroke-width="1" opacity="0.9764705882352941" d="M 322.5 334 L 332 334 L 332 345 Q 323.3 346.9 320 342.5 L 319 337.5 L 322.5 334 Z " /><path fill="rgb(182,0,255)" stroke="rgb(182,0,255)" stroke-width="1" opacity="0.9764705882352941" d="M 322.5 357 L 332 357 L 332 368 Q 323.3 369.9 320 365.5 L 319 360.5 L 322.5 357 Z " /><path fill="rgb(182,0,255)" stroke="rgb(182,0,255)" stroke-width="1" opacity="0.9764705882352941" d="M 229 408 L 332 408 L 332 484 L 295.5 493 L 263.5 496 L 262.5 495 L 254.5 495 L 252.5 496 L 251.5 495 L 234.5 495 L 229 494 L 229 408 Z " /><path fill="rgb(209,0,255)" stroke="rgb(209,0,255)" stroke-width="1" opacity="0.996078431372549" d="M 414.5 76 Q 455.3 111.2 478 164.5 L 487 190.5 L 492 211.5 L 492 216.5 L 494 223.5 L 494 231.5 L 495 232.5 L 496 265.5 L 495 266.5 L 495 279.5 L 494 280.5 L 494 287.5 L 493 288.5 L 491 305.5 L 485 328.5 L 475 354.5 Q 454.7 398.7 421.5 430 L 411.5 439 L 415 434.5 L 415 77.5 L 414.5 76 Z " /><path fill="rgb(207,0,255)" stroke="rgb(207,0,255)" stroke-width="1" opacity="1" d="M 332.5 29 L 370.5 45 Q 394.4 58.4 414 75 L 415 77.5 L 415 434.5 Q 399.6 450.6 379.5 462 Q 358.2 474.7 332.5 483 L 332 408 L 379.5 408 Q 390.8 405.3 397 397.5 L 401 391.5 L 404 378.5 L 404 237.5 L 402 226.5 L 400 222.5 L 391.5 213 L 384.5 209 L 373.5 207 L 332 207 L 332 197.5 L 332.5 197 L 363.5 197 L 365 195.5 L 365 106.5 Q 363.1 97.9 357.5 93 L 354.5 91 L 349.5 88 L 332 88 L 332.5 29 Z " /><path fill="rgb(207,0,255)" stroke="rgb(207,0,255)" stroke-width="1" opacity="1" d="M 332 334 L 372.5 334 L 375 336.5 L 376 340.5 L 373.5 344 L 371.5 345 L 332 345 L 332 334 Z " /><path fill="rgb(207,0,255)" stroke="rgb(207,0,255)" stroke-width="1" opacity="1" d="M 332 357 L 372.5 357 L 375 359.5 L 376 363.5 L 373.5 367 L 371.5 368 L 332 368 L 332 357 Z " /><path fill="rgb(145,0,255)" stroke="rgb(145,0,255)" stroke-width="1" opacity="1" d="M 188.5 26 L 190 26.5 L 190 88 L 163.5 88 Q 155.2 90.2 151 96.5 L 147 104.5 L 147 150 L 189.5 150 L 190 150.5 L 190 160 L 133.5 160 Q 119.8 163.3 113 173.5 L 109 182.5 Q 110.5 188 108 189.5 L 108 379.5 L 111 391.5 L 119.5 402 L 131.5 408 L 190 408 L 190 485.5 L 188.5 486 Q 139.9 470.8 105 443 Q 106.1 440.3 103.5 441 L 97 434.5 L 97 77.5 Q 133.4 42.4 188.5 26 Z " /><path fill="rgb(145,0,255)" stroke="rgb(145,0,255)" stroke-width="1" opacity="1" d="M 189.5 228 L 190 240 Q 182.4 242.4 178 249.5 L 172 259.5 L 169 275.5 Q 171.8 277.3 170 283.5 L 173 292.5 Q 177.3 301.3 184.5 307 L 190 310.5 L 190 320.5 L 188.5 321 Q 180.4 318.1 175.5 312 L 172.5 312 L 154.5 319 L 145 327.5 Q 139.9 333.9 138 343.5 L 138 367.5 L 142.5 375 L 147.5 378 L 190 378 L 190 388.5 L 189.5 389 L 148.5 389 Q 136.6 386.4 131 377.5 L 127 366.5 L 127 346.5 L 130 333.5 Q 134.5 322.5 142.5 315 L 150.5 309 L 167 302.5 L 162 293.5 L 159 282.5 L 159 268.5 Q 162.8 246.3 177.5 235 L 189.5 228 Z " /><path fill="rgb(166,0,255)" stroke="rgb(166,0,255)" stroke-width="1" opacity="0.9490196078431372" d="M 245.5 16 L 254 16.5 L 245.5 17 L 245.5 16 Z " /><path fill="rgb(166,0,255)" stroke="rgb(166,0,255)" stroke-width="1" opacity="0.9490196078431372" d="M 259.5 16 L 263 16.5 L 259.5 17 L 259.5 16 Z " /><path fill="rgb(166,0,255)" stroke="rgb(166,0,255)" stroke-width="1" opacity="0.9490196078431372" d="M 231.5 17 L 234 17.5 L 231.5 18 L 231.5 17 Z " /><path fill="rgb(166,0,255)" stroke="rgb(166,0,255)" stroke-width="1" opacity="0.9490196078431372" d="M 223.5 18 Q 228.9 17.4 229 18.5 L 229 88 L 190 88 L 190 25 L 223.5 18 Z " /><path fill="rgb(166,0,255)" stroke="rgb(166,0,255)" stroke-width="1" opacity="0.9490196078431372" d="M 156.5 91 L 155.5 93 L 156.5 91 Z " /><path fill="rgb(166,0,255)" stroke="rgb(166,0,255)" stroke-width="1" opacity="0.9490196078431372" d="M 147.5 149 L 202.5 149 Q 203.8 151.3 208.5 150 L 224.5 158 L 249 182.5 L 229 164.5 L 229 177.5 L 255 203.5 L 215.5 165 L 206.5 161 L 190 160 L 190 150.5 L 189.5 150 L 147.5 150 L 147.5 149 Z " /><path fill="rgb(166,0,255)" stroke="rgb(166,0,255)" stroke-width="1" opacity="0.9490196078431372" d="M 203.5 224 L 216.5 224 L 229 227 L 229 238.5 L 226.5 239 Q 218.5 233 202.5 235 L 190.5 240 L 190 228.5 L 191.5 227 L 203.5 224 Z " /><path fill="rgb(166,0,255)" stroke="rgb(166,0,255)" stroke-width="1" opacity="0.9490196078431372" d="M 182.5 231 L 181.5 233 L 182.5 231 Z " /><path fill="rgb(166,0,255)" stroke="rgb(166,0,255)" stroke-width="1" opacity="0.9490196078431372" d="M 179.5 233 L 178.5 235 L 179.5 233 Z " /><path fill="rgb(166,0,255)" stroke="rgb(166,0,255)" stroke-width="1" opacity="0.9490196078431372" d="M 242.5 235 L 243.5 237 L 242.5 235 Z " /><path fill="rgb(166,0,255)" stroke="rgb(166,0,255)" stroke-width="1" opacity="0.9490196078431372" d="M 173.5 238 L 172.5 240 L 173.5 238 Z " /><path fill="rgb(166,0,255)" stroke="rgb(166,0,255)" stroke-width="1" opacity="0.9490196078431372" d="M 188.5 240 L 187.5 242 L 188.5 240 Z " /><path fill="rgb(166,0,255)" stroke="rgb(166,0,255)" stroke-width="1" opacity="0.9490196078431372" d="M 232.5 241 L 233.5 243 L 232.5 241 Z " /><path fill="rgb(166,0,255)" stroke="rgb(166,0,255)" stroke-width="1" opacity="0.9490196078431372" d="M 248.5 241 L 249.5 243 L 248.5 241 Z " /><path fill="rgb(166,0,255)" stroke="rgb(166,0,255)" stroke-width="1" opacity="0.9490196078431372" d="M 185.5 242 L 178.5 250 L 185.5 242 Z " /><path fill="rgb(166,0,255)" stroke="rgb(166,0,255)" stroke-width="1" opacity="0.9490196078431372" d="M 169.5 243 L 168.5 245 L 169.5 243 Z " /><path fill="rgb(166,0,255)" stroke="rgb(166,0,255)" stroke-width="1" opacity="0.9490196078431372" d="M 251.5 245 L 252.5 247 L 251.5 245 Z " /><path fill="rgb(166,0,255)" stroke="rgb(166,0,255)" stroke-width="1" opacity="0.9490196078431372" d="M 176.5 252 L 175.5 254 L 176.5 252 Z " /><path fill="rgb(166,0,255)" stroke="rgb(166,0,255)" stroke-width="1" opacity="0.9490196078431372" d="M 169.5 273 L 170 275.5 L 169 275.5 L 169.5 273 Z " /><path fill="rgb(166,0,255)" stroke="rgb(166,0,255)" stroke-width="1" opacity="0.9490196078431372" d="M 244.5 295 L 243.5 297 L 244.5 295 Z " /><path fill="rgb(166,0,255)" stroke="rgb(166,0,255)" stroke-width="1" opacity="0.9490196078431372" d="M 242.5 298 L 240.5 301 L 242.5 298 Z " /><path fill="rgb(166,0,255)" stroke="rgb(166,0,255)" stroke-width="1" opacity="0.9490196078431372" d="M 178.5 300 L 184.5 307 L 178.5 300 Z " /><path fill="rgb(166,0,255)" stroke="rgb(166,0,255)" stroke-width="1" opacity="0.9490196078431372" d="M 234.5 306 L 233.5 308 L 234.5 306 Z " /><path fill="rgb(166,0,255)" stroke="rgb(166,0,255)" stroke-width="1" opacity="0.9490196078431372" d="M 189.5 309 Q 198.1 316.4 215.5 315 L 223.5 313 L 228.5 310 L 229 321.5 L 225.5 324 L 216.5 326 L 203.5 326 L 189 321.5 L 190 320.5 L 190 310.5 L 189.5 309 Z " /><path fill="rgb(166,0,255)" stroke="rgb(166,0,255)" stroke-width="1" opacity="0.9490196078431372" d="M 145.5 312 L 143.5 315 L 145.5 312 Z " /><path fill="rgb(166,0,255)" stroke="rgb(166,0,255)" stroke-width="1" opacity="0.9490196078431372" d="M 175.5 312 L 177.5 315 L 175.5 312 Z " /><path fill="rgb(166,0,255)" stroke="rgb(166,0,255)" stroke-width="1" opacity="0.9490196078431372" d="M 240.5 315 L 239.5 317 L 240.5 315 Z " /><path fill="rgb(166,0,255)" stroke="rgb(166,0,255)" stroke-width="1" opacity="0.9490196078431372" d="M 180.5 316 L 181.5 318 L 180.5 316 Z " /><path fill="rgb(166,0,255)" stroke="rgb(166,0,255)" stroke-width="1" opacity="0.9490196078431372" d="M 138.5 319 L 137.5 321 L 138.5 319 Z " /><path fill="rgb(166,0,255)" stroke="rgb(166,0,255)" stroke-width="1" opacity="0.9490196078431372" d="M 151.5 321 L 149.5 324 L 151.5 321 Z " /><path fill="rgb(166,0,255)" stroke="rgb(166,0,255)" stroke-width="1" opacity="0.9490196078431372" d="M 147.5 325 L 145.5 328 L 147.5 325 Z " /><path fill="rgb(166,0,255)" stroke="rgb(166,0,255)" stroke-width="1" opacity="0.9490196078431372" d="M 141.5 373 L 142.5 375 L 141.5 373 Z " /><path fill="rgb(166,0,255)" stroke="rgb(166,0,255)" stroke-width="1" opacity="0.9490196078431372" d="M 190 378 L 228.5 378 L 229 378.5 L 229 389 L 190.5 389 L 190 388.5 L 190 378 Z " /><path fill="rgb(166,0,255)" stroke="rgb(166,0,255)" stroke-width="1" opacity="0.9490196078431372" d="M 132.5 379 L 136.5 384 L 132.5 379 Z " /><path fill="rgb(166,0,255)" stroke="rgb(166,0,255)" stroke-width="1" opacity="0.9490196078431372" d="M 190 408 L 229 408 L 229 494 L 216.5 493 L 190 487 L 190 408 Z " /><path fill="rgb(166,0,255)" stroke="rgb(166,0,255)" stroke-width="1" opacity="0.9490196078431372" d="M 231.5 494 L 234 494.5 L 231.5 495 L 231.5 494 Z " /><path fill="rgb(166,0,255)" stroke="rgb(166,0,255)" stroke-width="1" opacity="0.9490196078431372" d="M 244.5 495 L 252 495.5 L 244.5 496 L 244.5 495 Z " /><path fill="rgb(166,0,255)" stroke="rgb(166,0,255)" stroke-width="1" opacity="0.9490196078431372" d="M 254.5 495 L 263 495.5 L 254.5 496 L 254.5 495 Z " /></svg>